# xmcd
#
# Track frame offsets: 
#        150
#        21885
#        35873
#        50767
#        71418
#        83834
#        105164
#        105617
#        122329
#        136610
#        151259
#        179597
#        192173
#
# Disc length: 3123 seconds
#
# Revision: 0
# Processed by: cddbd v1.5.2PL0 Copyright (c) Steve Scherf et al.
# Submitted via: ExactAudioCopy v0.99pb5
#
DISCID=a30c310d
DTITLE=Katla - Mikään ei valmistu koskaan
DYEAR=2003
DGENRE=Pop
TTITLE0=Pieni tyttö
TTITLE1=Hyvältä näyttää
TTITLE2=Ensimmäinen veri
TTITLE3=Ruhjeet
TTITLE4=Miksi kävi niin?
TTITLE5=Mikään ei valmistu koskaan
TTITLE6=Kellot pysähtyy
TTITLE7=Nyt kaikki on siellä
TTITLE8=Onnellisuuden vieressä
TTITLE9=J.I.O.M.M.
TTITLE10=Älä pelkää
TTITLE11=Kesät ja yöt
TTITLE12=Pimeyden voima
EXTD=
EXTT0=
EXTT1=
EXTT2=
EXTT3=
EXTT4=
EXTT5=
EXTT6=
EXTT7=
EXTT8=
EXTT9=
EXTT10=
EXTT11=
EXTT12=
PLAYORDER=
